<svg version="1.1" xmlns="http://www.w3.org/2000/svg" xmlns:xlink="http://www.w3.org/1999/xlink" width="679.27001953125" height="760"><defs/><g><text fill="#eeeeee" stroke="none" font-family="Arial" font-size="24px" font-style="normal" font-weight="normal" text-decoration="none" x="0" y="0">UNREGISTERED</text><text fill="#eeeeee" stroke="none" font-family="Arial" font-size="24px" font-style="normal" font-weight="normal" text-decoration="none" x="0" y="30">UNREGISTERED</text><text fill="#eeeeee" stroke="none" font-family="Arial" font-size="24px" font-style="normal" font-weight="normal" text-decoration="none" x="0" y="60">UNREGISTERED</text><text fill="#eeeeee" stroke="none" font-family="Arial" font-size="24px" font-style="normal" font-weight="normal" text-decoration="none" x="0" y="90">UNREGISTERED</text><text fill="#eeeeee" stroke="none" font-family="Arial" font-size="24px" font-style="normal" font-weight="normal" text-decoration="none" x="0" y="120">UNREGISTERED</text><text fill="#eeeeee" stroke="none" font-family="Arial" font-size="24px" font-style="normal" font-weight="normal" text-decoration="none" x="0" y="150">UNREGISTERED</text><text fill="#eeeeee" stroke="none" font-family="Arial" font-size="24px" font-style="normal" font-weight="normal" text-decoration="none" x="0" y="180">UNREGISTERED</text><text fill="#eeeeee" stroke="none" font-family="Arial" font-size="24px" font-style="normal" font-weight="normal" text-decoration="none" x="0" y="210">UNREGISTERED</text><text fill="#eeeeee" stroke="none" font-family="Arial" font-size="24px" font-style="normal" font-weight="normal" text-decoration="none" x="0" y="240">UNREGISTERED</text><text fill="#eeeeee" stroke="none" font-family="Arial" font-size="24px" font-style="normal" font-weight="normal" text-decoration="none" x="0" y="270">UNREGISTERED</text><text fill="#eeeeee" stroke="none" font-family="Arial" font-size="24px" font-style="normal" font-weight="normal" text-decoration="none" x="0" y="300">UNREGISTERED</text><text fill="#eeeeee" stroke="none" font-family="Arial" font-size="24px" font-style="normal" font-weight="normal" text-decoration="none" x="0" y="330">UNREGISTERED</text><text fill="#eeeeee" stroke="none" font-family="Arial" font-size="24px" font-style="normal" font-weight="normal" text-decoration="none" x="0" y="360">UNREGISTERED</text><text fill="#eeeeee" stroke="none" font-family="Arial" font-size="24px" font-style="normal" font-weight="normal" text-decoration="none" x="0" y="390">UNREGISTERED</text><text fill="#eeeeee" stroke="none" font-family="Arial" font-size="24px" font-style="normal" font-weight="normal" text-decoration="none" x="0" y="420">UNREGISTERED</text><text fill="#eeeeee" stroke="none" font-family="Arial" font-size="24px" font-style="normal" font-weight="normal" text-decoration="none" x="0" y="450">UNREGISTERED</text><text fill="#eeeeee" stroke="none" font-family="Arial" font-size="24px" font-style="normal" font-weight="normal" text-decoration="none" x="0" y="480">UNREGISTERED</text><text fill="#eeeeee" stroke="none" font-family="Arial" font-size="24px" font-style="normal" font-weight="normal" text-decoration="none" x="0" y="510">UNREGISTERED</text><text fill="#eeeeee" stroke="none" font-family="Arial" font-size="24px" font-style="normal" font-weight="normal" text-decoration="none" x="0" y="540">UNREGISTERED</text><text fill="#eeeeee" stroke="none" font-family="Arial" font-size="24px" font-style="normal" font-weight="normal" text-decoration="none" x="0" y="570">UNREGISTERED</text><text fill="#eeeeee" stroke="none" font-family="Arial" font-size="24px" font-style="normal" font-weight="normal" text-decoration="none" x="0" y="600">UNREGISTERED</text><text fill="#eeeeee" stroke="none" font-family="Arial" font-size="24px" font-style="normal" font-weight="normal" text-decoration="none" x="0" y="630">UNREGISTERED</text><text fill="#eeeeee" stroke="none" font-family="Arial" font-size="24px" font-style="normal" font-weight="normal" text-decoration="none" x="0" y="660">UNREGISTERED</text><text fill="#eeeeee" stroke="none" font-family="Arial" font-size="24px" font-style="normal" font-weight="normal" text-decoration="none" x="0" y="690">UNREGISTERED</text><text fill="#eeeeee" stroke="none" font-family="Arial" font-size="24px" font-style="normal" font-weight="normal" text-decoration="none" x="0" y="720">UNREGISTERED</text><text fill="#eeeeee" stroke="none" font-family="Arial" font-size="24px" font-style="normal" font-weight="normal" text-decoration="none" x="0" y="750">UNREGISTERED</text><text fill="#eeeeee" stroke="none" font-family="Arial" font-size="24px" font-style="normal" font-weight="normal" text-decoration="none" x="200" y="0">UNREGISTERED</text><text fill="#eeeeee" stroke="none" font-family="Arial" font-size="24px" font-style="normal" font-weight="normal" text-decoration="none" x="200" y="30">UNREGISTERED</text><text fill="#eeeeee" stroke="none" font-family="Arial" font-size="24px" font-style="normal" font-weight="normal" text-decoration="none" x="200" y="60">UNREGISTERED</text><text fill="#eeeeee" stroke="none" font-family="Arial" font-size="24px" font-style="normal" font-weight="normal" text-decoration="none" x="200" y="90">UNREGISTERED</text><text fill="#eeeeee" stroke="none" font-family="Arial" font-size="24px" font-style="normal" font-weight="normal" text-decoration="none" x="200" y="120">UNREGISTERED</text><text fill="#eeeeee" stroke="none" font-family="Arial" font-size="24px" font-style="normal" font-weight="normal" text-decoration="none" x="200" y="150">UNREGISTERED</text><text fill="#eeeeee" stroke="none" font-family="Arial" font-size="24px" font-style="normal" font-weight="normal" text-decoration="none" x="200" y="180">UNREGISTERED</text><text fill="#eeeeee" stroke="none" font-family="Arial" font-size="24px" font-style="normal" font-weight="normal" text-decoration="none" x="200" y="210">UNREGISTERED</text><text fill="#eeeeee" stroke="none" font-family="Arial" font-size="24px" font-style="normal" font-weight="normal" text-decoration="none" x="200" y="240">UNREGISTERED</text><text fill="#eeeeee" stroke="none" font-family="Arial" font-size="24px" font-style="normal" font-weight="normal" text-decoration="none" x="200" y="270">UNREGISTERED</text><text fill="#eeeeee" stroke="none" font-family="Arial" font-size="24px" font-style="normal" font-weight="normal" text-decoration="none" x="200" y="300">UNREGISTERED</text><text fill="#eeeeee" stroke="none" font-family="Arial" font-size="24px" font-style="normal" font-weight="normal" text-decoration="none" x="200" y="330">UNREGISTERED</text><text fill="#eeeeee" stroke="none" font-family="Arial" font-size="24px" font-style="normal" font-weight="normal" text-decoration="none" x="200" y="360">UNREGISTERED</text><text fill="#eeeeee" stroke="none" font-family="Arial" font-size="24px" font-style="normal" font-weight="normal" text-decoration="none" x="200" y="390">UNREGISTERED</text><text fill="#eeeeee" stroke="none" font-family="Arial" font-size="24px" font-style="normal" font-weight="normal" text-decoration="none" x="200" y="420">UNREGISTERED</text><text fill="#eeeeee" stroke="none" font-family="Arial" font-size="24px" font-style="normal" font-weight="normal" text-decoration="none" x="200" y="450">UNREGISTERED</text><text fill="#eeeeee" stroke="none" font-family="Arial" font-size="24px" font-style="normal" font-weight="normal" text-decoration="none" x="200" y="480">UNREGISTERED</text><text fill="#eeeeee" stroke="none" font-family="Arial" font-size="24px" font-style="normal" font-weight="normal" text-decoration="none" x="200" y="510">UNREGISTERED</text><text fill="#eeeeee" stroke="none" font-family="Arial" font-size="24px" font-style="normal" font-weight="normal" text-decoration="none" x="200" y="540">UNREGISTERED</text><text fill="#eeeeee" stroke="none" font-family="Arial" font-size="24px" font-style="normal" font-weight="normal" text-decoration="none" x="200" y="570">UNREGISTERED</text><text fill="#eeeeee" stroke="none" font-family="Arial" font-size="24px" font-style="normal" font-weight="normal" text-decoration="none" x="200" y="600">UNREGISTERED</text><text fill="#eeeeee" stroke="none" font-family="Arial" font-size="24px" font-style="normal" font-weight="normal" text-decoration="none" x="200" y="630">UNREGISTERED</text><text fill="#eeeeee" stroke="none" font-family="Arial" font-size="24px" font-style="normal" font-weight="normal" text-decoration="none" x="200" y="660">UNREGISTERED</text><text fill="#eeeeee" stroke="none" font-family="Arial" font-size="24px" font-style="normal" font-weight="normal" text-decoration="none" x="200" y="690">UNREGISTERED</text><text fill="#eeeeee" stroke="none" font-family="Arial" font-size="24px" font-style="normal" font-weight="normal" text-decoration="none" x="200" y="720">UNREGISTERED</text><text fill="#eeeeee" stroke="none" font-family="Arial" font-size="24px" font-style="normal" font-weight="normal" text-decoration="none" x="200" y="750">UNREGISTERED</text><text fill="#eeeeee" stroke="none" font-family="Arial" font-size="24px" font-style="normal" font-weight="normal" text-decoration="none" x="400" y="0">UNREGISTERED</text><text fill="#eeeeee" stroke="none" font-family="Arial" font-size="24px" font-style="normal" font-weight="normal" text-decoration="none" x="400" y="30">UNREGISTERED</text><text fill="#eeeeee" stroke="none" font-family="Arial" font-size="24px" font-style="normal" font-weight="normal" text-decoration="none" x="400" y="60">UNREGISTERED</text><text fill="#eeeeee" stroke="none" font-family="Arial" font-size="24px" font-style="normal" font-weight="normal" text-decoration="none" x="400" y="90">UNREGISTERED</text><text fill="#eeeeee" stroke="none" font-family="Arial" font-size="24px" font-style="normal" font-weight="normal" text-decoration="none" x="400" y="120">UNREGISTERED</text><text fill="#eeeeee" stroke="none" font-family="Arial" font-size="24px" font-style="normal" font-weight="normal" text-decoration="none" x="400" y="150">UNREGISTERED</text><text fill="#eeeeee" stroke="none" font-family="Arial" font-size="24px" font-style="normal" font-weight="normal" text-decoration="none" x="400" y="180">UNREGISTERED</text><text fill="#eeeeee" stroke="none" font-family="Arial" font-size="24px" font-style="normal" font-weight="normal" text-decoration="none" x="400" y="210">UNREGISTERED</text><text fill="#eeeeee" stroke="none" font-family="Arial" font-size="24px" font-style="normal" font-weight="normal" text-decoration="none" x="400" y="240">UNREGISTERED</text><text fill="#eeeeee" stroke="none" font-family="Arial" font-size="24px" font-style="normal" font-weight="normal" text-decoration="none" x="400" y="270">UNREGISTERED</text><text fill="#eeeeee" stroke="none" font-family="Arial" font-size="24px" font-style="normal" font-weight="normal" text-decoration="none" x="400" y="300">UNREGISTERED</text><text fill="#eeeeee" stroke="none" font-family="Arial" font-size="24px" font-style="normal" font-weight="normal" text-decoration="none" x="400" y="330">UNREGISTERED</text><text fill="#eeeeee" stroke="none" font-family="Arial" font-size="24px" font-style="normal" font-weight="normal" text-decoration="none" x="400" y="360">UNREGISTERED</text><text fill="#eeeeee" stroke="none" font-family="Arial" font-size="24px" font-style="normal" font-weight="normal" text-decoration="none" x="400" y="390">UNREGISTERED</text><text fill="#eeeeee" stroke="none" font-family="Arial" font-size="24px" font-style="normal" font-weight="normal" text-decoration="none" x="400" y="420">UNREGISTERED</text><text fill="#eeeeee" stroke="none" font-family="Arial" font-size="24px" font-style="normal" font-weight="normal" text-decoration="none" x="400" y="450">UNREGISTERED</text><text fill="#eeeeee" stroke="none" font-family="Arial" font-size="24px" font-style="normal" font-weight="normal" text-decoration="none" x="400" y="480">UNREGISTERED</text><text fill="#eeeeee" stroke="none" font-family="Arial" font-size="24px" font-style="normal" font-weight="normal" text-decoration="none" x="400" y="510">UNREGISTERED</text><text fill="#eeeeee" stroke="none" font-family="Arial" font-size="24px" font-style="normal" font-weight="normal" text-decoration="none" x="400" y="540">UNREGISTERED</text><text fill="#eeeeee" stroke="none" font-family="Arial" font-size="24px" font-style="normal" font-weight="normal" text-decoration="none" x="400" y="570">UNREGISTERED</text><text fill="#eeeeee" stroke="none" font-family="Arial" font-size="24px" font-style="normal" font-weight="normal" text-decoration="none" x="400" y="600">UNREGISTERED</text><text fill="#eeeeee" stroke="none" font-family="Arial" font-size="24px" font-style="normal" font-weight="normal" text-decoration="none" x="400" y="630">UNREGISTERED</text><text fill="#eeeeee" stroke="none" font-family="Arial" font-size="24px" font-style="normal" font-weight="normal" text-decoration="none" x="400" y="660">UNREGISTERED</text><text fill="#eeeeee" stroke="none" font-family="Arial" font-size="24px" font-style="normal" font-weight="normal" text-decoration="none" x="400" y="690">UNREGISTERED</text><text fill="#eeeeee" stroke="none" font-family="Arial" font-size="24px" font-style="normal" font-weight="normal" text-decoration="none" x="400" y="720">UNREGISTERED</text><text fill="#eeeeee" stroke="none" font-family="Arial" font-size="24px" font-style="normal" font-weight="normal" text-decoration="none" x="400" y="750">UNREGISTERED</text><text fill="#eeeeee" stroke="none" font-family="Arial" font-size="24px" font-style="normal" font-weight="normal" text-decoration="none" x="600" y="0">UNREGISTERED</text><text fill="#eeeeee" stroke="none" font-family="Arial" font-size="24px" font-style="normal" font-weight="normal" text-decoration="none" x="600" y="30">UNREGISTERED</text><text fill="#eeeeee" stroke="none" font-family="Arial" font-size="24px" font-style="normal" font-weight="normal" text-decoration="none" x="600" y="60">UNREGISTERED</text><text fill="#eeeeee" stroke="none" font-family="Arial" font-size="24px" font-style="normal" font-weight="normal" text-decoration="none" x="600" y="90">UNREGISTERED</text><text fill="#eeeeee" stroke="none" font-family="Arial" font-size="24px" font-style="normal" font-weight="normal" text-decoration="none" x="600" y="120">UNREGISTERED</text><text fill="#eeeeee" stroke="none" font-family="Arial" font-size="24px" font-style="normal" font-weight="normal" text-decoration="none" x="600" y="150">UNREGISTERED</text><text fill="#eeeeee" stroke="none" font-family="Arial" font-size="24px" font-style="normal" font-weight="normal" text-decoration="none" x="600" y="180">UNREGISTERED</text><text fill="#eeeeee" stroke="none" font-family="Arial" font-size="24px" font-style="normal" font-weight="normal" text-decoration="none" x="600" y="210">UNREGISTERED</text><text fill="#eeeeee" stroke="none" font-family="Arial" font-size="24px" font-style="normal" font-weight="normal" text-decoration="none" x="600" y="240">UNREGISTERED</text><text fill="#eeeeee" stroke="none" font-family="Arial" font-size="24px" font-style="normal" font-weight="normal" text-decoration="none" x="600" y="270">UNREGISTERED</text><text fill="#eeeeee" stroke="none" font-family="Arial" font-size="24px" font-style="normal" font-weight="normal" text-decoration="none" x="600" y="300">UNREGISTERED</text><text fill="#eeeeee" stroke="none" font-family="Arial" font-size="24px" font-style="normal" font-weight="normal" text-decoration="none" x="600" y="330">UNREGISTERED</text><text fill="#eeeeee" stroke="none" font-family="Arial" font-size="24px" font-style="normal" font-weight="normal" text-decoration="none" x="600" y="360">UNREGISTERED</text><text fill="#eeeeee" stroke="none" font-family="Arial" font-size="24px" font-style="normal" font-weight="normal" text-decoration="none" x="600" y="390">UNREGISTERED</text><text fill="#eeeeee" stroke="none" font-family="Arial" font-size="24px" font-style="normal" font-weight="normal" text-decoration="none" x="600" y="420">UNREGISTERED</text><text fill="#eeeeee" stroke="none" font-family="Arial" font-size="24px" font-style="normal" font-weight="normal" text-decoration="none" x="600" y="450">UNREGISTERED</text><text fill="#eeeeee" stroke="none" font-family="Arial" font-size="24px" font-style="normal" font-weight="normal" text-decoration="none" x="600" y="480">UNREGISTERED</text><text fill="#eeeeee" stroke="none" font-family="Arial" font-size="24px" font-style="normal" font-weight="normal" text-decoration="none" x="600" y="510">UNREGISTERED</text><text fill="#eeeeee" stroke="none" font-family="Arial" font-size="24px" font-style="normal" font-weight="normal" text-decoration="none" x="600" y="540">UNREGISTERED</text><text fill="#eeeeee" stroke="none" font-family="Arial" font-size="24px" font-style="normal" font-weight="normal" text-decoration="none" x="600" y="570">UNREGISTERED</text><text fill="#eeeeee" stroke="none" font-family="Arial" font-size="24px" font-style="normal" font-weight="normal" text-decoration="none" x="600" y="600">UNREGISTERED</text><text fill="#eeeeee" stroke="none" font-family="Arial" font-size="24px" font-style="normal" font-weight="normal" text-decoration="none" x="600" y="630">UNREGISTERED</text><text fill="#eeeeee" stroke="none" font-family="Arial" font-size="24px" font-style="normal" font-weight="normal" text-decoration="none" x="600" y="660">UNREGISTERED</text><text fill="#eeeeee" stroke="none" font-family="Arial" font-size="24px" font-style="normal" font-weight="normal" text-decoration="none" x="600" y="690">UNREGISTERED</text><text fill="#eeeeee" stroke="none" font-family="Arial" font-size="24px" font-style="normal" font-weight="normal" text-decoration="none" x="600" y="720">UNREGISTERED</text><text fill="#eeeeee" stroke="none" font-family="Arial" font-size="24px" font-style="normal" font-weight="normal" text-decoration="none" x="600" y="750">UNREGISTERED</text><g transform="translate(2,-46) scale(1,1)"><rect fill="#C0C0C0" stroke="none" x="15" y="583" width="93.17626953125" height="115" opacity="0.2"/></g><g transform="translate(2,-46) scale(1,1)"><rect fill="#ffffff" stroke="none" x="8" y="576" width="93.17626953125" height="115"/></g><g transform="translate(2,-46) scale(1,1)"><path fill="none" stroke="#000000" d="M 8 576 L 101.17626953125 576 L 101.17626953125 691 L 8 691 L 8 576 Z Z" stroke-miterlimit="10"/></g><g transform="translate(2,-46) scale(1,1)"><path fill="none" stroke="#000000" d="M 8 601 L 101.17626953125 601" stroke-miterlimit="10"/></g><g transform="translate(2,-46) scale(1,1)"><path fill="none" stroke="#000000" d="M 8 639 L 101.17626953125 639" stroke-miterlimit="10"/></g><g transform="translate(2,-46) scale(1,1)"><g><path fill="none" stroke="none"/><text fill="#000000" stroke="none" font-family="Arial" font-size="13px" font-style="normal" font-weight="bold" text-decoration="none" x="31.114501953125" y="595.5">NOEUD</text></g></g><g transform="translate(2,-46) scale(1,1)"><g><path fill="none" stroke="none"/><text fill="#000000" stroke="none" font-family="Arial" font-size="13px" font-style="normal" font-weight="normal" text-decoration="none" x="13" y="618.5">+coord</text></g></g><g transform="translate(2,-46) scale(1,1)"><g><path fill="none" stroke="none"/><text fill="#000000" stroke="none" font-family="Arial" font-size="13px" font-style="normal" font-weight="normal" text-decoration="none" x="13" y="633.5">+highlight</text></g></g><g transform="translate(2,-46) scale(1,1)"><g><path fill="none" stroke="none"/><text fill="#000000" stroke="none" font-family="Arial" font-size="13px" font-style="normal" font-weight="normal" text-decoration="none" x="13" y="656.5">+noeud()</text></g></g><g transform="translate(2,-46) scale(1,1)"><g><path fill="none" stroke="none"/><text fill="#000000" stroke="none" font-family="Arial" font-size="13px" font-style="normal" font-weight="normal" text-decoration="none" x="13" y="671.5">+setHighlight()</text></g></g><g transform="translate(2,-46) scale(1,1)"><g><path fill="none" stroke="none"/><text fill="#000000" stroke="none" font-family="Arial" font-size="13px" font-style="normal" font-weight="normal" text-decoration="none" x="13" y="686.5">+getCoord()</text></g></g><g transform="translate(2,-46) scale(1,1)"><rect fill="#C0C0C0" stroke="none" x="343" y="367" width="117.01806640625" height="100" opacity="0.2"/></g><g transform="translate(2,-46) scale(1,1)"><rect fill="#ffffff" stroke="none" x="336" y="360" width="117.01806640625" height="100"/></g><g transform="translate(2,-46) scale(1,1)"><path fill="none" stroke="#000000" d="M 336 360 L 453.01806640625 360 L 453.01806640625 460 L 336 460 L 336 360 Z Z" stroke-miterlimit="10"/></g><g transform="translate(2,-46) scale(1,1)"><path fill="none" stroke="#000000" d="M 336 385 L 453.01806640625 385" stroke-miterlimit="10"/></g><g transform="translate(2,-46) scale(1,1)"><path fill="none" stroke="#000000" d="M 336 423 L 453.01806640625 423" stroke-miterlimit="10"/></g><g transform="translate(2,-46) scale(1,1)"><g><path fill="none" stroke="none"/><text fill="#000000" stroke="none" font-family="Arial" font-size="13px" font-style="normal" font-weight="bold" text-decoration="none" x="357.667236328125" y="379.5">SELECTION</text></g></g><g transform="translate(2,-46) scale(1,1)"><g><path fill="none" stroke="none"/><text fill="#000000" stroke="none" font-family="Arial" font-size="13px" font-style="normal" font-weight="normal" text-decoration="none" x="341" y="402.5">+nodes_list</text></g></g><g transform="translate(2,-46) scale(1,1)"><g><path fill="none" stroke="none"/><text fill="#000000" stroke="none" font-family="Arial" font-size="13px" font-style="normal" font-weight="normal" text-decoration="none" x="341" y="417.5">+faces_list</text></g></g><g transform="translate(2,-46) scale(1,1)"><g><path fill="none" stroke="none"/><text fill="#000000" stroke="none" font-family="Arial" font-size="13px" font-style="normal" font-weight="normal" text-decoration="none" x="341" y="440.5">+selection()</text></g></g><g transform="translate(2,-46) scale(1,1)"><g><path fill="none" stroke="none"/><text fill="#000000" stroke="none" font-family="Arial" font-size="13px" font-style="normal" font-weight="normal" text-decoration="none" x="341" y="455.5">+modifySelection()</text></g></g><g transform="translate(2,-46) scale(1,1)"><rect fill="#C0C0C0" stroke="none" x="407" y="607" width="75.447265625" height="87" opacity="0.2"/></g><g transform="translate(2,-46) scale(1,1)"><rect fill="#ffffff" stroke="none" x="400" y="600" width="75.447265625" height="87"/></g><g transform="translate(2,-46) scale(1,1)"><path fill="none" stroke="#000000" d="M 400 600 L 475.447265625 600 L 475.447265625 687 L 400 687 L 400 600 Z Z" stroke-miterlimit="10"/></g><g transform="translate(2,-46) scale(1,1)"><path fill="none" stroke="#000000" d="M 400 625 L 475.447265625 625" stroke-miterlimit="10"/></g><g transform="translate(2,-46) scale(1,1)"><path fill="none" stroke="#000000" d="M 400 663 L 475.447265625 663" stroke-miterlimit="10"/></g><g transform="translate(2,-46) scale(1,1)"><g><path fill="none" stroke="none"/><text fill="#000000" stroke="none" font-family="Arial" font-size="13px" font-style="normal" font-weight="bold" text-decoration="none" x="404.85546875" y="619.5">CYLINDRE</text></g></g><g transform="translate(2,-46) scale(1,1)"><g><path fill="none" stroke="none"/><text fill="#000000" stroke="none" font-family="Arial" font-size="13px" font-style="normal" font-weight="normal" text-decoration="none" x="405" y="642.5">+rayon_int</text></g></g><g transform="translate(2,-46) scale(1,1)"><g><path fill="none" stroke="none"/><text fill="#000000" stroke="none" font-family="Arial" font-size="13px" font-style="normal" font-weight="normal" text-decoration="none" x="405" y="657.5">+rayon_ext</text></g></g><g transform="translate(2,-46) scale(1,1)"><path fill="none" stroke="#000000" d="M 429 599 L 403 461" stroke-miterlimit="10"/></g><g transform="translate(2,-46) scale(1,1)"><path fill="#FFFFFF" stroke="none" d="M 415.03668062535064 479.4151654764031 L 403 461 L 398.4897301081252 482.5327068781992"/></g><g transform="translate(2,-46) scale(1,1)"><path fill="none" stroke="#000000" d="M 415.03668062535064 479.4151654764031 L 403 461 L 398.4897301081252 482.5327068781992 L 415.03668062535064 479.4151654764031" stroke-miterlimit="10"/></g><g transform="translate(2,-46) scale(1,1)"><rect fill="#C0C0C0" stroke="none" x="207" y="631" width="88.92333984375" height="44" opacity="0.2"/></g><g transform="translate(2,-46) scale(1,1)"><rect fill="#ffffff" stroke="none" x="200" y="624" width="88.92333984375" height="44"/></g><g transform="translate(2,-46) scale(1,1)"><path fill="none" stroke="#000000" d="M 200 624 L 288.92333984375 624 L 288.92333984375 668 L 200 668 L 200 624 Z Z" stroke-miterlimit="10"/></g><g transform="translate(2,-46) scale(1,1)"><path fill="none" stroke="#000000" d="M 200 649 L 288.92333984375 649" stroke-miterlimit="10"/></g><g transform="translate(2,-46) scale(1,1)"><path fill="none" stroke="#000000" d="M 200 659 L 288.92333984375 659" stroke-miterlimit="10"/></g><g transform="translate(2,-46) scale(1,1)"><g><path fill="none" stroke="none"/><text fill="#000000" stroke="none" font-family="Arial" font-size="13px" font-style="normal" font-weight="bold" text-decoration="none" x="205.214111328125" y="643.5">RECTANGLE</text></g></g><g transform="translate(2,-46) scale(1,1)"><path fill="none" stroke="#000000" d="M 259 623 L 362 461" stroke-miterlimit="10"/></g><g transform="translate(2,-46) scale(1,1)"><path fill="#FFFFFF" stroke="none" d="M 358.1992908837272 482.6692088045106 L 362 461 L 343.9900483219493 473.6349372991827"/></g><g transform="translate(2,-46) scale(1,1)"><path fill="none" stroke="#000000" d="M 358.1992908837272 482.6692088045106 L 362 461 L 343.9900483219493 473.6349372991827 L 358.1992908837272 482.6692088045106" stroke-miterlimit="10"/></g><g transform="translate(2,-46) scale(1,1)"><rect fill="#C0C0C0" stroke="none" x="143" y="271" width="115.57080078125" height="115" opacity="0.2"/></g><g transform="translate(2,-46) scale(1,1)"><rect fill="#ffffff" stroke="none" x="136" y="264" width="115.57080078125" height="115"/></g><g transform="translate(2,-46) scale(1,1)"><path fill="none" stroke="#000000" d="M 136 264 L 251.57080078125 264 L 251.57080078125 379 L 136 379 L 136 264 Z Z" stroke-miterlimit="10"/></g><g transform="translate(2,-46) scale(1,1)"><path fill="none" stroke="#000000" d="M 136 289 L 251.57080078125 289" stroke-miterlimit="10"/></g><g transform="translate(2,-46) scale(1,1)"><path fill="none" stroke="#000000" d="M 136 327 L 251.57080078125 327" stroke-miterlimit="10"/></g><g transform="translate(2,-46) scale(1,1)"><g><path fill="none" stroke="none"/><text fill="#000000" stroke="none" font-family="Arial" font-size="13px" font-style="normal" font-weight="bold" text-decoration="none" x="174.279052734375" y="283.5">PIECE</text></g></g><g transform="translate(2,-46) scale(1,1)"><g><path fill="none" stroke="none"/><text fill="#000000" stroke="none" font-family="Arial" font-size="13px" font-style="normal" font-weight="normal" text-decoration="none" x="141" y="306.5">+elements_list</text></g></g><g transform="translate(2,-46) scale(1,1)"><g><path fill="none" stroke="none"/><text fill="#000000" stroke="none" font-family="Arial" font-size="13px" font-style="normal" font-weight="normal" text-decoration="none" x="141" y="321.5">+interface</text></g></g><g transform="translate(2,-46) scale(1,1)"><g><path fill="none" stroke="none"/><text fill="#000000" stroke="none" font-family="Arial" font-size="13px" font-style="normal" font-weight="normal" text-decoration="none" x="141" y="344.5">+piece()</text></g></g><g transform="translate(2,-46) scale(1,1)"><g><path fill="none" stroke="none"/><text fill="#000000" stroke="none" font-family="Arial" font-size="13px" font-style="normal" font-weight="normal" text-decoration="none" x="141" y="359.5">+getInterfaces()</text></g></g><g transform="translate(2,-46) scale(1,1)"><g><path fill="none" stroke="none"/><text fill="#000000" stroke="none" font-family="Arial" font-size="13px" font-style="normal" font-weight="normal" text-decoration="none" x="141" y="374.5">+createElements()</text></g></g><g transform="translate(2,-46) scale(1,1)"><rect fill="#C0C0C0" stroke="none" x="199" y="431" width="96.78173828125" height="100" opacity="0.2"/></g><g transform="translate(2,-46) scale(1,1)"><rect fill="#ffffff" stroke="none" x="192" y="424" width="96.78173828125" height="100"/></g><g transform="translate(2,-46) scale(1,1)"><path fill="none" stroke="#000000" d="M 192 424 L 288.78173828125 424 L 288.78173828125 524 L 192 524 L 192 424 Z Z" stroke-miterlimit="10"/></g><g transform="translate(2,-46) scale(1,1)"><path fill="none" stroke="#000000" d="M 192 449 L 288.78173828125 449" stroke-miterlimit="10"/></g><g transform="translate(2,-46) scale(1,1)"><path fill="none" stroke="#000000" d="M 192 472 L 288.78173828125 472" stroke-miterlimit="10"/></g><g transform="translate(2,-46) scale(1,1)"><g><path fill="none" stroke="none"/><text fill="#000000" stroke="none" font-family="Arial" font-size="13px" font-style="normal" font-weight="bold" text-decoration="none" x="209.6904296875" y="443.5">ELEMENT</text></g></g><g transform="translate(2,-46) scale(1,1)"><g><path fill="none" stroke="none"/><text fill="#000000" stroke="none" font-family="Arial" font-size="13px" font-style="normal" font-weight="normal" text-decoration="none" x="197" y="466.5">+faces_list</text></g></g><g transform="translate(2,-46) scale(1,1)"><g><path fill="none" stroke="none"/><text fill="#000000" stroke="none" font-family="Arial" font-size="13px" font-style="normal" font-weight="normal" text-decoration="none" x="197" y="489.5">+element()</text></g></g><g transform="translate(2,-46) scale(1,1)"><g><path fill="none" stroke="none"/><text fill="#000000" stroke="none" font-family="Arial" font-size="13px" font-style="normal" font-weight="normal" text-decoration="none" x="197" y="504.5">+getFaces()</text></g></g><g transform="translate(2,-46) scale(1,1)"><g><path fill="none" stroke="none"/><text fill="#000000" stroke="none" font-family="Arial" font-size="13px" font-style="normal" font-weight="normal" text-decoration="none" x="197" y="519.5">+createFaces()</text></g></g><g transform="translate(2,-46) scale(1,1)"><rect fill="#C0C0C0" stroke="none" x="575" y="71" width="99.27001953125" height="72" opacity="0.2"/></g><g transform="translate(2,-46) scale(1,1)"><rect fill="#ffffff" stroke="none" x="568" y="64" width="99.27001953125" height="72"/></g><g transform="translate(2,-46) scale(1,1)"><path fill="none" stroke="#000000" d="M 568 64 L 667.27001953125 64 L 667.27001953125 136 L 568 136 L 568 64 Z Z" stroke-miterlimit="10"/></g><g transform="translate(2,-46) scale(1,1)"><path fill="none" stroke="#000000" d="M 568 89 L 667.27001953125 89" stroke-miterlimit="10"/></g><g transform="translate(2,-46) scale(1,1)"><path fill="none" stroke="#000000" d="M 568 127 L 667.27001953125 127" stroke-miterlimit="10"/></g><g transform="translate(2,-46) scale(1,1)"><g><path fill="none" stroke="none"/><text fill="#000000" stroke="none" font-family="Arial" font-size="13px" font-style="normal" font-weight="bold" text-decoration="none" x="573.2109375" y="83.5">CONTROLLER</text></g></g><g transform="translate(2,-46) scale(1,1)"><g><path fill="none" stroke="none"/><text fill="#000000" stroke="none" font-family="Arial" font-size="13px" font-style="normal" font-weight="normal" text-decoration="none" x="573" y="106.5">+model</text></g></g><g transform="translate(2,-46) scale(1,1)"><g><path fill="none" stroke="none"/><text fill="#000000" stroke="none" font-family="Arial" font-size="13px" font-style="normal" font-weight="normal" text-decoration="none" x="573" y="121.5">+adresse_data</text></g></g><g transform="translate(2,-46) scale(1,1)"><path fill="none" stroke="#000000" d="M 211 380 L 224 423" stroke-miterlimit="10"/></g><g transform="translate(2,-46) scale(1,1)"><rect fill="#C0C0C0" stroke="none" x="23" y="415" width="98.958984375" height="115" opacity="0.2"/></g><g transform="translate(2,-46) scale(1,1)"><rect fill="#ffffff" stroke="none" x="16" y="408" width="98.958984375" height="115"/></g><g transform="translate(2,-46) scale(1,1)"><path fill="none" stroke="#000000" d="M 16 408 L 114.958984375 408 L 114.958984375 523 L 16 523 L 16 408 Z Z" stroke-miterlimit="10"/></g><g transform="translate(2,-46) scale(1,1)"><path fill="none" stroke="#000000" d="M 16 433 L 114.958984375 433" stroke-miterlimit="10"/></g><g transform="translate(2,-46) scale(1,1)"><path fill="none" stroke="#000000" d="M 16 471 L 114.958984375 471" stroke-miterlimit="10"/></g><g transform="translate(2,-46) scale(1,1)"><g><path fill="none" stroke="none"/><text fill="#000000" stroke="none" font-family="Arial" font-size="13px" font-style="normal" font-weight="bold" text-decoration="none" x="48.502685546875" y="427.5">FACE</text></g></g><g transform="translate(2,-46) scale(1,1)"><g><path fill="none" stroke="none"/><text fill="#000000" stroke="none" font-family="Arial" font-size="13px" font-style="normal" font-weight="normal" text-decoration="none" x="21" y="450.5">+nodes_list</text></g></g><g transform="translate(2,-46) scale(1,1)"><g><path fill="none" stroke="none"/><text fill="#000000" stroke="none" font-family="Arial" font-size="13px" font-style="normal" font-weight="normal" text-decoration="none" x="21" y="465.5">+isInterface</text></g></g><g transform="translate(2,-46) scale(1,1)"><g><path fill="none" stroke="none"/><text fill="#000000" stroke="none" font-family="Arial" font-size="13px" font-style="normal" font-weight="normal" text-decoration="none" x="21" y="488.5">+face()</text></g></g><g transform="translate(2,-46) scale(1,1)"><g><path fill="none" stroke="none"/><text fill="#000000" stroke="none" font-family="Arial" font-size="13px" font-style="normal" font-weight="normal" text-decoration="none" x="21" y="503.5">+getNodes()</text></g></g><g transform="translate(2,-46) scale(1,1)"><g><path fill="none" stroke="none"/><text fill="#000000" stroke="none" font-family="Arial" font-size="13px" font-style="normal" font-weight="normal" text-decoration="none" x="21" y="518.5">+createNodes()</text></g></g><g transform="translate(2,-46) scale(1,1)"><rect fill="#C0C0C0" stroke="none" x="159" y="63" width="124.958984375" height="175" opacity="0.2"/></g><g transform="translate(2,-46) scale(1,1)"><rect fill="#ffffff" stroke="none" x="152" y="56" width="124.958984375" height="175"/></g><g transform="translate(2,-46) scale(1,1)"><path fill="none" stroke="#000000" d="M 152 56 L 276.958984375 56 L 276.958984375 231 L 152 231 L 152 56 Z Z" stroke-miterlimit="10"/></g><g transform="translate(2,-46) scale(1,1)"><path fill="none" stroke="#000000" d="M 152 81 L 276.958984375 81" stroke-miterlimit="10"/></g><g transform="translate(2,-46) scale(1,1)"><path fill="none" stroke="#000000" d="M 152 134 L 276.958984375 134" stroke-miterlimit="10"/></g><g transform="translate(2,-46) scale(1,1)"><g><path fill="none" stroke="none"/><text fill="#000000" stroke="none" font-family="Arial" font-size="13px" font-style="normal" font-weight="bold" text-decoration="none" x="191.364501953125" y="75.5">MODEL</text></g></g><g transform="translate(2,-46) scale(1,1)"><g><path fill="none" stroke="none"/><text fill="#000000" stroke="none" font-family="Arial" font-size="13px" font-style="normal" font-weight="normal" text-decoration="none" x="157" y="98.5">+data</text></g></g><g transform="translate(2,-46) scale(1,1)"><g><path fill="none" stroke="none"/><text fill="#000000" stroke="none" font-family="Arial" font-size="13px" font-style="normal" font-weight="normal" text-decoration="none" x="157" y="113.5">+parts_list</text></g></g><g transform="translate(2,-46) scale(1,1)"><g><path fill="none" stroke="none"/><text fill="#000000" stroke="none" font-family="Arial" font-size="13px" font-style="normal" font-weight="normal" text-decoration="none" x="157" y="128.5">+contacts_list</text></g></g><g transform="translate(2,-46) scale(1,1)"><g><path fill="none" stroke="none"/><text fill="#000000" stroke="none" font-family="Arial" font-size="13px" font-style="normal" font-weight="normal" text-decoration="none" x="157" y="151.5">+model()</text></g></g><g transform="translate(2,-46) scale(1,1)"><g><path fill="none" stroke="none"/><text fill="#000000" stroke="none" font-family="Arial" font-size="13px" font-style="normal" font-weight="normal" text-decoration="none" x="157" y="166.5">+findContact()</text></g></g><g transform="translate(2,-46) scale(1,1)"><g><path fill="none" stroke="none"/><text fill="#000000" stroke="none" font-family="Arial" font-size="13px" font-style="normal" font-weight="normal" text-decoration="none" x="157" y="181.5">+createContact()</text></g></g><g transform="translate(2,-46) scale(1,1)"><g><path fill="none" stroke="none"/><text fill="#000000" stroke="none" font-family="Arial" font-size="13px" font-style="normal" font-weight="normal" text-decoration="none" x="157" y="196.5">+createPart()</text></g></g><g transform="translate(2,-46) scale(1,1)"><g><path fill="none" stroke="none"/><text fill="#000000" stroke="none" font-family="Arial" font-size="13px" font-style="normal" font-weight="normal" text-decoration="none" x="157" y="211.5">+getContact()</text></g></g><g transform="translate(2,-46) scale(1,1)"><g><path fill="none" stroke="none"/><text fill="#000000" stroke="none" font-family="Arial" font-size="13px" font-style="normal" font-weight="normal" text-decoration="none" x="157" y="226.5">+createData()</text></g></g><g transform="translate(2,-46) scale(1,1)"><path fill="none" stroke="#000000" d="M 200 263 L 204 232" stroke-miterlimit="10"/></g><g transform="translate(2,-46) scale(1,1)"><path fill="none" stroke="#000000" d="M 116 468 L 191 471" stroke-miterlimit="10"/></g><g transform="translate(2,-46) scale(1,1)"><path fill="none" stroke="#000000" d="M 116 408 L 141 380" stroke-miterlimit="10"/></g><g transform="translate(2,-46) scale(1,1)"><path fill="none" stroke="#000000" d="M 61 524 L 58 575" stroke-miterlimit="10"/></g><g transform="translate(2,-46) scale(1,1)"><rect fill="#C0C0C0" stroke="none" x="303" y="759" width="113.71728515625" height="44" opacity="0.2"/></g><g transform="translate(2,-46) scale(1,1)"><rect fill="#ffffff" stroke="none" x="296" y="752" width="113.71728515625" height="44"/></g><g transform="translate(2,-46) scale(1,1)"><path fill="none" stroke="#000000" d="M 296 752 L 409.71728515625 752 L 409.71728515625 796 L 296 796 L 296 752 Z Z" stroke-miterlimit="10"/></g><g transform="translate(2,-46) scale(1,1)"><path fill="none" stroke="#000000" d="M 296 777 L 409.71728515625 777" stroke-miterlimit="10"/></g><g transform="translate(2,-46) scale(1,1)"><path fill="none" stroke="#000000" d="M 296 787 L 409.71728515625 787" stroke-miterlimit="10"/></g><g transform="translate(2,-46) scale(1,1)"><g><path fill="none" stroke="none"/><text fill="#000000" stroke="none" font-family="Arial" font-size="13px" font-style="normal" font-weight="bold" text-decoration="none" x="300.85546875" y="771.5">CYLIND STRUCT</text></g></g><g transform="translate(2,-46) scale(1,1)"><path fill="none" stroke="#000000" d="M 367 751 L 408 688" stroke-miterlimit="10"/></g><g transform="translate(2,-46) scale(1,1)"><path fill="#FFFFFF" stroke="none" d="M 403.969744845808 709.6276915872247 L 408 688 L 389.857091867821 700.4432666332966"/></g><g transform="translate(2,-46) scale(1,1)"><path fill="none" stroke="#000000" d="M 403.969744845808 709.6276915872247 L 408 688 L 389.857091867821 700.4432666332966 L 403.969744845808 709.6276915872247" stroke-miterlimit="10"/></g><g transform="translate(2,-46) scale(1,1)"><rect fill="#C0C0C0" stroke="none" x="447" y="759" width="110.11181640625" height="44" opacity="0.2"/></g><g transform="translate(2,-46) scale(1,1)"><rect fill="#ffffff" stroke="none" x="440" y="752" width="110.11181640625" height="44"/></g><g transform="translate(2,-46) scale(1,1)"><path fill="none" stroke="#000000" d="M 440 752 L 550.11181640625 752 L 550.11181640625 796 L 440 796 L 440 752 Z Z" stroke-miterlimit="10"/></g><g transform="translate(2,-46) scale(1,1)"><path fill="none" stroke="#000000" d="M 440 777 L 550.11181640625 777" stroke-miterlimit="10"/></g><g transform="translate(2,-46) scale(1,1)"><path fill="none" stroke="#000000" d="M 440 787 L 550.11181640625 787" stroke-miterlimit="10"/></g><g transform="translate(2,-46) scale(1,1)"><g><path fill="none" stroke="none"/><text fill="#000000" stroke="none" font-family="Arial" font-size="13px" font-style="normal" font-weight="bold" text-decoration="none" x="444.85546875" y="771.5">CYLIND CPOINT</text></g></g><g transform="translate(2,-46) scale(1,1)"><path fill="none" stroke="#000000" d="M 485 751 L 457 688" stroke-miterlimit="10"/></g><g transform="translate(2,-46) scale(1,1)"><path fill="#FFFFFF" stroke="none" d="M 472.9483182344897 703.1542451310332 L 457 688 L 457.5614944762119 709.9928334680455"/></g><g transform="translate(2,-46) scale(1,1)"><path fill="none" stroke="#000000" d="M 472.9483182344897 703.1542451310332 L 457 688 L 457.5614944762119 709.9928334680455 L 472.9483182344897 703.1542451310332" stroke-miterlimit="10"/></g><g transform="translate(2,-46) scale(1,1)"><rect fill="#C0C0C0" stroke="none" x="343" y="191" width="117.01806640625" height="130" opacity="0.2"/></g><g transform="translate(2,-46) scale(1,1)"><rect fill="#ffffff" stroke="none" x="336" y="184" width="117.01806640625" height="130"/></g><g transform="translate(2,-46) scale(1,1)"><path fill="none" stroke="#000000" d="M 336 184 L 453.01806640625 184 L 453.01806640625 314 L 336 314 L 336 184 Z Z" stroke-miterlimit="10"/></g><g transform="translate(2,-46) scale(1,1)"><path fill="none" stroke="#000000" d="M 336 209 L 453.01806640625 209" stroke-miterlimit="10"/></g><g transform="translate(2,-46) scale(1,1)"><path fill="none" stroke="#000000" d="M 336 262 L 453.01806640625 262" stroke-miterlimit="10"/></g><g transform="translate(2,-46) scale(1,1)"><g><path fill="none" stroke="none"/><text fill="#000000" stroke="none" font-family="Arial" font-size="13px" font-style="normal" font-weight="bold" text-decoration="none" x="363.576904296875" y="203.5">CONTACT</text></g></g><g transform="translate(2,-46) scale(1,1)"><g><path fill="none" stroke="none"/><text fill="#000000" stroke="none" font-family="Arial" font-size="13px" font-style="normal" font-weight="normal" text-decoration="none" x="341" y="226.5">+selection</text></g></g><g transform="translate(2,-46) scale(1,1)"><g><path fill="none" stroke="none"/><text fill="#000000" stroke="none" font-family="Arial" font-size="13px" font-style="normal" font-weight="normal" text-decoration="none" x="341" y="241.5">+piece1</text></g></g><g transform="translate(2,-46) scale(1,1)"><g><path fill="none" stroke="none"/><text fill="#000000" stroke="none" font-family="Arial" font-size="13px" font-style="normal" font-weight="normal" text-decoration="none" x="341" y="256.5">+piece2</text></g></g><g transform="translate(2,-46) scale(1,1)"><g><path fill="none" stroke="none"/><text fill="#000000" stroke="none" font-family="Arial" font-size="13px" font-style="normal" font-weight="normal" text-decoration="none" x="341" y="279.5">+contact()</text></g></g><g transform="translate(2,-46) scale(1,1)"><g><path fill="none" stroke="none"/><text fill="#000000" stroke="none" font-family="Arial" font-size="13px" font-style="normal" font-weight="normal" text-decoration="none" x="341" y="294.5">+createSelection()</text></g></g><g transform="translate(2,-46) scale(1,1)"><g><path fill="none" stroke="none"/><text fill="#000000" stroke="none" font-family="Arial" font-size="13px" font-style="normal" font-weight="normal" text-decoration="none" x="341" y="309.5">+getSelection()</text></g></g><g transform="translate(2,-46) scale(1,1)"><path fill="none" stroke="#000000" d="M 278 181 L 335 214" stroke-miterlimit="10"/></g><g transform="translate(2,-46) scale(1,1)"><path fill="none" stroke="#000000" d="M 394 315 L 394 359" stroke-miterlimit="10"/></g><g transform="translate(2,-46) scale(1,1)"><rect fill="#C0C0C0" stroke="none" x="31" y="135" width="97.51171875" height="115" opacity="0.2"/></g><g transform="translate(2,-46) scale(1,1)"><rect fill="#ffffff" stroke="none" x="24" y="128" width="97.51171875" height="115"/></g><g transform="translate(2,-46) scale(1,1)"><path fill="none" stroke="#000000" d="M 24 128 L 121.51171875 128 L 121.51171875 243 L 24 243 L 24 128 Z Z" stroke-miterlimit="10"/></g><g transform="translate(2,-46) scale(1,1)"><path fill="none" stroke="#000000" d="M 24 153 L 121.51171875 153" stroke-miterlimit="10"/></g><g transform="translate(2,-46) scale(1,1)"><path fill="none" stroke="#000000" d="M 24 191 L 121.51171875 191" stroke-miterlimit="10"/></g><g transform="translate(2,-46) scale(1,1)"><g><path fill="none" stroke="none"/><text fill="#000000" stroke="none" font-family="Arial" font-size="13px" font-style="normal" font-weight="bold" text-decoration="none" x="56.38525390625" y="147.5">DATA</text></g></g><g transform="translate(2,-46) scale(1,1)"><g><path fill="none" stroke="none"/><text fill="#000000" stroke="none" font-family="Arial" font-size="13px" font-style="normal" font-weight="normal" text-decoration="none" x="29" y="170.5">+nodes_list</text></g></g><g transform="translate(2,-46) scale(1,1)"><g><path fill="none" stroke="none"/><text fill="#000000" stroke="none" font-family="Arial" font-size="13px" font-style="normal" font-weight="normal" text-decoration="none" x="29" y="185.5">+elements_list</text></g></g><g transform="translate(2,-46) scale(1,1)"><g><path fill="none" stroke="none"/><text fill="#000000" stroke="none" font-family="Arial" font-size="13px" font-style="normal" font-weight="normal" text-decoration="none" x="29" y="208.5">+data()</text></g></g><g transform="translate(2,-46) scale(1,1)"><g><path fill="none" stroke="none"/><text fill="#000000" stroke="none" font-family="Arial" font-size="13px" font-style="normal" font-weight="normal" text-decoration="none" x="29" y="223.5">+getNodes()</text></g></g><g transform="translate(2,-46) scale(1,1)"><g><path fill="none" stroke="none"/><text fill="#000000" stroke="none" font-family="Arial" font-size="13px" font-style="normal" font-weight="normal" text-decoration="none" x="29" y="238.5">+getElements()</text></g></g><g transform="translate(2,-46) scale(1,1)"><path fill="none" stroke="#000000" d="M 123 170 L 151 162" stroke-miterlimit="10"/></g><g transform="translate(2,-46) scale(1,1)"><path fill="none" stroke="#000000" d="M 278 136 L 567 105" stroke-miterlimit="10"/></g></g></svg>